<svg width="40" height="40" viewBox="0 0 40 40" fill="none" xmlns="http://www.w3.org/2000/svg">
<path d="M20 35.9617C19.1467 35.9617 18.4132 35.67 17.7996 35.0867C17.186 34.5033 16.8561 33.785 16.81 32.9317H23.19C23.1439 33.785 22.814 34.5033 22.2004 35.0867C21.5868 35.67 20.8533 35.9617 20 35.9617Z" fill="#E3E3E3"/>
<path d="M14.7521 30.1729C14.4549 30.1729 14.2061 30.0722 14.0058 29.8708C13.8053 29.6694 13.705 29.4194 13.705 29.1208C13.705 28.8222 13.8053 28.574 14.0058 28.3763C14.2061 28.1782 14.4549 28.0792 14.7521 28.0792H25.2479C25.5451 28.0792 25.7939 28.1799 25.9942 28.3813C26.1947 28.5826 26.295 28.8326 26.295 29.1313C26.295 29.4299 26.1947 29.6781 25.9942 29.8758C25.7939 30.0739 25.5451 30.1729 25.2479 30.1729H14.7521Z" fill="#E3E3E3"/>
<path fill-rule="evenodd" clip-rule="evenodd" d="M20 3.82324C23.2066 3.82324 25.9528 4.96553 28.2383 7.25098C30.5238 9.53653 31.667 12.2829 31.667 15.4893C31.667 17.5684 31.1736 19.4525 30.1875 21.1416C29.2014 22.8305 27.8506 24.2331 26.1348 25.3486H13.8652C12.1608 24.2331 10.813 22.8305 9.82129 21.1416C8.82937 19.4525 8.33302 17.5684 8.33301 15.4893C8.33301 12.2829 9.47616 9.53653 11.7617 7.25098C14.0472 4.96553 16.7934 3.82324 20 3.82324ZM20 5.91699C17.3506 5.91699 15.0927 6.84971 13.2266 8.71582C11.3606 10.5818 10.4278 12.8393 10.4277 15.4883C10.4277 17.0552 10.7911 18.5194 11.5186 19.8799C12.2461 21.2404 13.2617 22.365 14.5645 23.2539H20V5.91699Z" fill="#E3E3E3"/>
</svg>
