<svg width="40" height="40" viewBox="0 0 40 40" fill="none" xmlns="http://www.w3.org/2000/svg">
<path fill-rule="evenodd" clip-rule="evenodd" d="M32.2217 5C32.9717 5 33.6227 5.27534 34.1738 5.82617C34.7247 6.37728 35 7.02832 35 7.77832V32.2217C35 32.9717 34.7247 33.6227 34.1738 34.1738C33.6227 34.7247 32.9717 35 32.2217 35H7.77832C7.02832 35 6.37728 34.7247 5.82617 34.1738C5.27534 33.6227 5 32.9717 5 32.2217V7.77832C5 7.02832 5.27534 6.37728 5.82617 5.82617C6.37728 5.27534 7.02832 5 7.77832 5H32.2217ZM7.77832 32.2217H32.2217V7.77832H7.77832V32.2217Z" fill="#E3E3E3"/>
<path d="M14.5939 27.8462C15.1855 27.8462 15.6127 27.5669 15.8592 26.7946L17.0587 23.2945H22.9413L24.1408 26.7946C24.3873 27.5504 24.8146 27.8462 25.406 27.8462C26.129 27.8462 26.622 27.3697 26.622 26.7124C26.622 26.4495 26.5562 26.2194 26.4413 25.8578L21.8404 13.4519C21.5117 12.5975 20.8873 12.1538 19.9836 12.1538C19.0962 12.1538 18.4883 12.5975 18.1596 13.4519L13.5587 25.8578C13.4437 26.2194 13.378 26.4495 13.378 26.696C13.378 27.386 13.8709 27.8462 14.5939 27.8462ZM17.716 21.3227L19.9178 14.9636H20.0822L22.2841 21.3227H17.716Z" fill="#E3E3E3"/>
</svg>
