<svg width="40" height="40" viewBox="0 0 40 40" fill="none" xmlns="http://www.w3.org/2000/svg">
<path fill-rule="evenodd" clip-rule="evenodd" d="M32.2217 5C32.9717 5 33.6227 5.27534 34.1738 5.82617C34.7247 6.37728 35 7.02832 35 7.77832V32.2217C35 32.9717 34.7247 33.6227 34.1738 34.1738C33.6227 34.7247 32.9717 35 32.2217 35H7.77832C7.02832 35 6.37728 34.7247 5.82617 34.1738C5.27534 33.6227 5 32.9717 5 32.2217V7.77832C5 7.02832 5.27534 6.37728 5.82617 5.82617C6.37728 5.27534 7.02832 5 7.77832 5H32.2217ZM7.77832 32.2217H32.2217V7.77832H7.77832V32.2217Z" fill="#E3E3E3"/>
<path d="M13.4658 27.9032C14.2385 27.9032 14.7088 27.3994 14.7088 26.5258V16.8337H14.8432L18.7066 26.5091C18.9586 27.1137 19.3617 27.3994 19.9832 27.3994C20.6047 27.3994 21.0247 27.1137 21.2598 26.5091L25.1569 16.8337H25.2912V26.5258C25.2912 27.3825 25.7448 27.9032 26.4839 27.9032C27.2734 27.9032 27.7268 27.3994 27.7268 26.5258V13.659C27.7268 12.7351 27.0718 12.0968 26.148 12.0968C25.3416 12.0968 24.8041 12.4664 24.5017 13.1886L20.0504 24.359H19.9664L15.4815 13.1886C15.1959 12.4664 14.6584 12.0968 13.8521 12.0968C12.9115 12.0968 12.2732 12.7351 12.2732 13.659V26.5258C12.2732 27.3825 12.7267 27.9032 13.4658 27.9032Z" fill="#E3E3E3"/>
</svg>
