<svg width="40" height="40" viewBox="0 0 40 40" fill="none" xmlns="http://www.w3.org/2000/svg">
<path d="M9.71807 26.7718C10.6758 26.7718 11.5252 27.1201 12.2024 27.7972C12.8797 28.4745 13.2288 29.3246 13.2288 30.2825C13.2287 31.2403 12.8796 32.0897 12.2024 32.7669C11.5251 33.4438 10.6757 33.7923 9.71807 33.7923C8.76041 33.7923 7.91102 33.4438 7.2337 32.7669H7.23272C6.55589 32.0897 6.20841 31.2401 6.20831 30.2825C6.20831 29.3248 6.55578 28.4745 7.23272 27.7972L7.36163 27.6741C8.0166 27.0777 8.81992 26.7718 9.71807 26.7718ZM20.0003 26.7718C20.958 26.7719 21.8075 27.12 22.4847 27.7972C23.162 28.4745 23.5101 29.3246 23.5101 30.2825C23.51 31.1805 23.204 31.9832 22.6077 32.638L22.4847 32.7669C21.8074 33.4438 20.9579 33.7922 20.0003 33.7923C19.0426 33.7923 18.1923 33.4438 17.5149 32.7669C16.8378 32.0897 16.4897 31.2402 16.4896 30.2825C16.4896 29.3247 16.8377 28.4745 17.5149 27.7972C18.1922 27.1199 19.0424 26.7718 20.0003 26.7718ZM30.2825 26.7718C31.2402 26.7719 32.0897 27.12 32.7669 27.7972C33.4438 28.4745 33.7923 29.3248 33.7923 30.2825C33.7922 31.1803 33.486 31.9831 32.8899 32.638L32.7669 32.7669C32.0897 33.4437 31.24 33.7922 30.2825 33.7923C29.3248 33.7923 28.4745 33.4438 27.7972 32.7669C27.12 32.0897 26.7719 31.2402 26.7718 30.2825C26.7718 29.3246 27.1199 28.4745 27.7972 27.7972C28.4745 27.1199 29.3246 26.7718 30.2825 26.7718ZM9.71807 16.4896C10.6758 16.4896 11.5252 16.8379 12.2024 17.515C12.8797 18.1922 13.2288 19.0424 13.2288 20.0003C13.2287 20.9581 12.8797 21.8075 12.2024 22.4847C11.5252 23.1619 10.6759 23.51 9.71807 23.5101C8.81987 23.5101 8.01662 23.2043 7.36163 22.6077L7.23272 22.4847C6.55587 21.8074 6.20838 20.9579 6.20831 20.0003C6.20831 19.0426 6.55578 18.1923 7.23272 17.515L7.36163 17.3919C8.01659 16.7955 8.81995 16.4896 9.71807 16.4896ZM20.0003 16.4896C20.958 16.4896 21.8075 16.8379 22.4847 17.515C23.162 18.1922 23.5101 19.0424 23.5101 20.0003C23.51 20.9581 23.1619 21.8075 22.4847 22.4847C21.8075 23.1619 20.9581 23.51 20.0003 23.5101C19.0424 23.5101 18.1922 23.162 17.5149 22.4847C16.8379 21.8075 16.4896 20.958 16.4896 20.0003C16.4896 19.0424 16.8377 18.1922 17.5149 17.515C18.1922 16.8377 19.0424 16.4896 20.0003 16.4896ZM30.2825 16.4896C31.2402 16.4897 32.0897 16.8378 32.7669 17.515C33.4438 18.1923 33.7923 19.0426 33.7923 20.0003C33.7922 20.8981 33.486 21.7008 32.8899 22.3558L32.7669 22.4847C32.0897 23.1619 31.2403 23.51 30.2825 23.5101C29.3246 23.5101 28.4745 23.162 27.7972 22.4847C27.12 21.8075 26.7719 20.958 26.7718 20.0003C26.7718 19.0424 27.1199 18.1922 27.7972 17.515C28.4744 16.8377 29.3247 16.4896 30.2825 16.4896ZM9.71807 6.20831C10.6158 6.20835 11.4186 6.51374 12.0735 7.10968L12.2024 7.23273L12.3255 7.36163C12.9221 8.01664 13.2288 8.81984 13.2288 9.71808C13.2288 10.6759 12.8797 11.5252 12.2024 12.2025C11.5252 12.8797 10.6759 13.2288 9.71807 13.2288C8.76016 13.2288 7.91001 12.8797 7.23272 12.2025C6.55589 11.5252 6.20834 10.6757 6.20831 9.71808C6.20831 8.7605 6.55595 7.911 7.23272 7.2337L7.2337 7.23273C7.91099 6.55596 8.76049 6.20831 9.71807 6.20831ZM20.0003 6.20831C20.898 6.20838 21.7009 6.51372 22.3558 7.10968L22.4847 7.23273L22.6077 7.36163C23.2043 8.01663 23.5101 8.81987 23.5101 9.71808C23.51 10.6759 23.1619 11.5252 22.4847 12.2025C21.8075 12.8797 20.9581 13.2287 20.0003 13.2288C19.0424 13.2288 18.1922 12.8797 17.5149 12.2025C16.8379 11.5252 16.4896 10.6758 16.4896 9.71808C16.4896 8.76017 16.8377 7.91001 17.5149 7.23273L17.6439 7.10968C18.2989 6.51353 19.1023 6.20831 20.0003 6.20831ZM30.2825 6.20831C31.1802 6.20841 31.9831 6.51371 32.638 7.10968L32.7669 7.23273V7.2337C33.4438 7.91103 33.7923 8.76041 33.7923 9.71808C33.7923 10.6757 33.4438 11.5252 32.7669 12.2025C32.0897 12.8796 31.2403 13.2287 30.2825 13.2288C29.3246 13.2288 28.4745 12.8797 27.7972 12.2025C27.12 11.5252 26.7718 10.6758 26.7718 9.71808C26.7718 8.76017 27.1199 7.91001 27.7972 7.23273L27.9261 7.10968C28.5811 6.51358 29.3846 6.20831 30.2825 6.20831Z" stroke="#E3E3E3" stroke-width="2.2" stroke-linejoin="round"/>
</svg>
