<svg width="40" height="40" viewBox="0 0 40 40" fill="none" xmlns="http://www.w3.org/2000/svg">
<path d="M9.71807 16.4896C10.6758 16.4896 11.5252 16.8379 12.2024 17.515C12.8797 18.1922 13.2288 19.0424 13.2288 20.0003C13.2287 20.9581 12.8797 21.8075 12.2024 22.4847C11.5252 23.1619 10.6759 23.51 9.71807 23.5101C8.81987 23.5101 8.01662 23.2043 7.36163 22.6077L7.23272 22.4847C6.55587 21.8074 6.20838 20.9579 6.20831 20.0003C6.20831 19.0426 6.55578 18.1923 7.23272 17.515L7.36163 17.3919C8.01659 16.7955 8.81995 16.4896 9.71807 16.4896Z" stroke="#E3E3E3" stroke-width="2.2" stroke-linejoin="round"/>
<path d="M14.8598 7.59C15.8175 7.59 16.6669 7.9383 17.3441 8.6154C18.0214 9.2926 18.3705 10.1428 18.3705 11.1007C18.3704 12.0585 18.0214 12.9079 17.3441 13.5851C16.6669 14.2623 15.8176 14.6104 14.8598 14.6105C13.9616 14.6105 13.1583 14.3047 12.5033 13.7081L12.3744 13.5851C11.6976 12.9078 11.3501 12.0583 11.35 11.1007C11.35 10.143 11.6975 9.2927 12.3744 8.6154L12.5033 8.4923C13.1583 7.8959 13.9616 7.59 14.8598 7.59Z" stroke="#E3E3E3" stroke-width="2.2" stroke-linejoin="round"/>
<path d="M25.1398 7.59C26.0975 7.59 26.9469 7.9383 27.6241 8.6154C28.3014 9.2926 28.6505 10.1428 28.6505 11.1007C28.6504 12.0585 28.3014 12.9079 27.6241 13.5851C26.9469 14.2623 26.0976 14.6104 25.1398 14.6105C24.2416 14.6105 23.4383 14.3047 22.7833 13.7081L22.6544 13.5851C21.9776 12.9078 21.6301 12.0583 21.63 11.1007C21.63 10.143 21.9775 9.2927 22.6544 8.6154L22.7833 8.4923C23.4383 7.8959 24.2416 7.59 25.1398 7.59Z" stroke="#E3E3E3" stroke-width="2.2" stroke-linejoin="round"/>
<path d="M14.8598 25.39C15.8175 25.39 16.6669 25.7383 17.3441 26.4154C18.0214 27.0926 18.3705 27.9428 18.3705 28.9007C18.3704 29.8585 18.0214 30.7079 17.3441 31.3851C16.6669 32.0623 15.8176 32.4104 14.8598 32.4105C13.9616 32.4105 13.1583 32.1047 12.5033 31.5081L12.3744 31.3851C11.6976 30.7078 11.3501 29.8583 11.35 28.9007C11.35 27.943 11.6975 27.0927 12.3744 26.4154L12.5033 26.2923C13.1583 25.6959 13.9616 25.39 14.8598 25.39Z" stroke="#E3E3E3" stroke-width="2.2" stroke-linejoin="round"/>
<path d="M20.0003 16.4896C20.958 16.4896 21.8075 16.8379 22.4847 17.515C23.162 18.1922 23.5101 19.0424 23.5101 20.0003C23.51 20.9581 23.1619 21.8075 22.4847 22.4847C21.8075 23.1619 20.9581 23.51 20.0003 23.5101C19.0424 23.5101 18.1922 23.162 17.5149 22.4847C16.8379 21.8075 16.4896 20.958 16.4896 20.0003C16.4896 19.0424 16.8377 18.1922 17.5149 17.515C18.1922 16.8377 19.0424 16.4896 20.0003 16.4896Z" stroke="#E3E3E3" stroke-width="2.2" stroke-linejoin="round"/>
<path d="M25.1407 25.39C26.0984 25.39 26.9479 25.7383 27.6251 26.4154C28.3024 27.0926 28.6505 27.9428 28.6505 28.9007C28.6504 29.8585 28.3023 30.7079 27.6251 31.3851C26.9479 32.0623 26.0985 32.4104 25.1407 32.4105C24.1828 32.4105 23.3326 32.0624 22.6553 31.3851C21.9783 30.7079 21.63 29.8584 21.63 28.9007C21.63 27.9428 21.9781 27.0926 22.6553 26.4154C23.3326 25.7381 24.1828 25.39 25.1407 25.39Z" stroke="#E3E3E3" stroke-width="2.2" stroke-linejoin="round"/>
<path d="M30.2825 16.4896C31.2402 16.4897 32.0897 16.8378 32.7669 17.515C33.4438 18.1923 33.7923 19.0426 33.7923 20.0003C33.7922 20.8981 33.486 21.7008 32.8899 22.3558L32.7669 22.4847C32.0897 23.1619 31.2403 23.51 30.2825 23.5101C29.3246 23.5101 28.4745 23.162 27.7972 22.4847C27.12 21.8075 26.7719 20.958 26.7718 20.0003C26.7718 19.0424 27.1199 18.1922 27.7972 17.515C28.4744 16.8377 29.3247 16.4896 30.2825 16.4896Z" stroke="#E3E3E3" stroke-width="2.2" stroke-linejoin="round"/>
</svg>
